<?xml version="1.0" encoding="iso-8859-1"?>
<!-- Uploaded to: SVG Repo, www.svgrepo.com, Generator: SVG Repo Mixer Tools -->
<svg version="1.1" id="Layer_1" xmlns="http://www.w3.org/2000/svg" xmlns:xlink="http://www.w3.org/1999/xlink" 
	 viewBox="0 0 512 512" xml:space="preserve">
<path style="fill:#C7B299;" d="M416.366,375.732H39.845c-17.698,0-32.044-14.346-32.044-32.044V103.355
	c0,0-8.188,31.723,56.078,32.044c52.581,0.263,314.074,0.096,407.424,0.026c18.343-0.014,33.185,14.853,33.185,33.196v207.11
	h-88.122V375.732z"/>
<path style="fill:#F15A24;" d="M39.845,134.818c-17.698,0-32.044-14.028-32.044-31.726s14.346-31.726,32.044-31.726H80.32v63.452
	H39.845z"/>
<path style="fill:#A74826;" d="M7.508,103.355c0-17.698,14.641-31.988,32.338-31.988H63.88c-17.698,0-32.447,14.29-32.447,31.988
	v31.464H7.509v-31.464H7.508z"/>
<path style="fill:#F15A24;" d="M504.719,168.104v239.671c0,17.698-14.577,31.818-32.275,31.818h-39.498V199.31h39.498
	c17.698,0,32.16-13.927,32.16-31.625"/>
<path style="fill:#F47B50;" d="M480.794,198.354v209.421c0,17.698-14.685,31.818-32.383,31.818h24.034
	c17.698,0,32.275-14.122,32.275-31.818V167.443C504.719,182.357,493.277,194.781,480.794,198.354z"/>
<g>
	<polyline style="fill:#FBB03B;" points="152.094,134.818 152.094,199.31 256.113,199.31 256.113,134.818 	"/>
	<path style="fill:#FBB03B;" d="M7.801,199.488h112.155V135.4h-67.05c-8.59,0-17.061-2-24.743-5.841L7.801,119.377V199.488z"/>
	<rect x="392.38" y="343.898" style="fill:#FBB03B;" width="40.567" height="31.206"/>
	<polygon style="fill:#FBB03B;" points="432.946,256.521 392.378,256.521 392.378,168.104 472.473,168.104 472.473,199.31 
		432.946,199.31 	"/>
	<polyline style="fill:#FBB03B;" points="7.508,238.837 198.903,238.837 198.903,303.329 7.508,303.329 	"/>
	<polyline style="fill:#FBB03B;" points="39.754,375.102 39.754,343.897 135.451,343.897 135.451,375.102 	"/>
	<polyline style="fill:#FBB03B;" points="208.265,375.102 208.265,343.897 352.851,343.897 352.851,375.102 	"/>
</g>
<path style="fill:#F47B50;" d="M376.31,135.399c0,22.122-40.056,80.111-40.056,80.111s-40.056-57.988-40.056-80.111
	s17.934-40.056,40.056-40.056C358.378,95.344,376.31,113.277,376.31,135.399z"/>
<g>
	<circle style="fill:#FFFFFF;" cx="336.252" cy="239.546" r="16.022"/>
	<circle style="fill:#FFFFFF;" cx="336.252" cy="135.402" r="16.022"/>
</g>
<path d="M336.256,159.222c-13.135,0-23.823-10.687-23.823-23.822c0-13.137,10.687-23.823,23.823-23.823
	c13.137,0,23.823,10.687,23.823,23.823C360.079,148.534,349.392,159.222,336.256,159.222z M336.256,127.178
	c-4.532,0-8.221,3.689-8.221,8.221c0,4.532,3.688,8.22,8.221,8.22s8.221-3.687,8.221-8.22
	C344.476,130.867,340.789,127.178,336.256,127.178z"/>
<polygon style="fill:#FBB03B;" points="240.511,238.837 280.038,238.837 280.038,272.123 311.243,272.123 311.243,303.329 
	240.511,303.329 "/>
<polygon points="417.343,262.762 384.057,262.762 384.057,159.783 480.794,159.783 480.794,183.707 465.191,183.707 
	465.191,175.386 399.66,175.386 399.66,247.159 417.343,247.159 "/>
<path d="M320.605,311.651h-88.416v-80.095h55.13v31.206h33.286V311.651z M247.792,296.048h57.21v-17.683h-33.286v-31.206h-23.924
	L247.792,296.048L247.792,296.048z"/>
<path d="M417.343,351.178v-15.603h-33.286v33.286h-23.924v-33.286H200.983v33.286h-57.21v-33.286H31.432v31.622
	c-9.013-3.663-15.603-12.951-15.603-23.517l-0.03-32.03h192.465v-80.095H15.724l-0.023-23.924h112.468V144.18h15.603v63.452h119.622
	V144.18h16.643v-15.603H39.847c-13.357,0-24.226-10.949-24.243-24.414v-0.059c0.016-13.466,10.885-24.416,24.243-24.416H72v39.527
	h15.603v-55.13H39.847c-21.714,0-39.415,17.55-39.827,39.277H0l0.001,0.744c0,0.009-0.001,0.019-0.001,0.028
	c0,0.01,0.001,0.02,0.001,0.03l0.226,239.524c0,22.484,17.773,40.776,39.62,40.776h377.496v-15.603H399.66v-17.683H417.343z
	 M159.376,144.18h88.416v47.849h-88.416V144.18z M15.634,135.908c6.717,5.182,15.11,8.273,24.212,8.273h72.721v47.849H15.686
	L15.634,135.908z M15.738,247.159h176.924v48.889H15.785L15.738,247.159z M128.17,368.861H47.035v-17.683h81.135V368.861z
	 M216.586,351.178H344.53v17.683H216.586L216.586,351.178L216.586,351.178z"/>
<g>
	<polygon style="fill:#FFFFFF;" points="352.851,287.726 328.927,287.726 328.927,256.521 344.529,256.521 344.529,272.123 
		352.851,272.123 	"/>
	<polygon style="fill:#FFFFFF;" points="392.378,311.651 368.454,311.651 368.454,287.726 360.132,287.726 360.132,272.123 
		384.057,272.123 384.057,296.048 392.378,296.048 	"/>
	<rect x="399.662" y="296.049" style="fill:#FFFFFF;" width="33.286" height="15.603"/>
</g>
<path d="M472.444,447.915h-48.86V192.029h48.86c13.346,0,23.954-10.697,23.954-23.86v-0.074c0-13.186-10.588-23.915-23.954-23.915
	h-80.065v-15.603h80.065c21.971,0,39.556,17.732,39.556,39.527c0,0.003,0,0.007,0,0.009l0,0c0,0.027,0,0.05,0,0.073l-0.145,239.598
	C511.855,429.909,494.255,447.915,472.444,447.915z M439.187,432.313h33.257c13.208,0,23.954-11.007,23.954-24.537l0.252-208.292
	c-6.714,5.107-15.109,8.148-24.205,8.148h-33.257L439.187,432.313L439.187,432.313z"/>
<path d="M344.542,217.209c8.698-12.865,39.571-60.066,39.571-81.809c0-26.389-21.468-47.857-47.857-47.857
	s-47.857,21.468-47.857,47.857c0,21.743,30.873,68.944,39.571,81.809c-9.063,3.373-15.537,12.112-15.537,22.335
	c0,13.136,10.687,23.822,23.823,23.822c13.137,0,23.823-10.688,23.823-23.822C360.079,229.32,353.605,220.582,344.542,217.209z
	 M336.256,103.146c17.785,0,32.254,14.469,32.254,32.254c0,12.406-17.779,43.822-32.255,66.084
	c-14.476-22.256-32.253-53.668-32.253-66.084C304.002,117.615,318.471,103.146,336.256,103.146z M336.256,247.763
	c-4.532,0-8.221-3.687-8.221-8.22c0-4.532,3.688-8.221,8.221-8.221s8.221,3.689,8.221,8.221
	C344.476,244.076,340.789,247.763,336.256,247.763z"/>
</svg>