<?xml version="1.0" encoding="iso-8859-1"?>
<!-- Uploaded to: SVG Repo, www.svgrepo.com, Generator: SVG Repo Mixer Tools -->
<svg height="800px" width="800px" version="1.1" id="Layer_1" xmlns="http://www.w3.org/2000/svg" xmlns:xlink="http://www.w3.org/1999/xlink" 
	 viewBox="0 0 512 512" xml:space="preserve">
<path style="fill:#F7D04A;" d="M453.211,269.176l-29.859-29.859c-3.092-3.092-8.106-3.092-11.197,0l-71.662,71.662
	c-3.092,3.092-3.092,8.106,0,11.197l29.859,29.859c1.546,1.546,3.572,2.319,5.598,2.319s4.053-0.773,5.598-2.319l71.662-71.662
	C456.303,277.281,456.303,272.268,453.211,269.176z"/>
<path style="fill:#F3B41B;" d="M371.43,280.042l-30.938,30.938c-3.092,3.092-3.092,8.106,0,11.197l29.859,29.859
	c1.546,1.546,3.572,2.319,5.598,2.319c2.026,0,4.053-0.773,5.598-2.319l30.938-30.938L371.43,280.042z"/>
<path style="fill:#F7D04A;" d="M402.186,330.632l-99.173-99.173c-1.484-1.485-3.499-2.319-5.598-2.319
	c-2.1,0-4.114,0.834-5.598,2.319l-29.86,29.86c-1.485,1.484-2.319,3.499-2.319,5.598s0.834,4.114,2.319,5.598l87.976,87.975l0,0
	c4.487,4.487,10.451,6.957,16.796,6.957c6.345,0,12.309-2.47,16.796-6.957l18.663-18.663
	C405.278,338.736,405.278,333.723,402.186,330.632z"/>
<path style="fill:#F3B41B;" d="M303.014,231.458c-1.484-1.485-3.499-2.319-5.598-2.319c-2.1,0-4.114,0.834-5.598,2.319l-29.86,29.86
	c-1.485,1.484-2.319,3.499-2.319,5.598s0.834,4.114,2.319,5.598l44.834,44.834l41.057-41.057L303.014,231.458z"/>
<path style="fill:#808080;" d="M511.619,304.516l-31.671-97.123c-1.062-3.258-4.1-5.463-7.527-5.463h-27.448
	c-21.83,0-39.588,17.759-39.588,39.588V275.3c0,21.83,17.759,39.588,39.588,39.588h59.119
	C509.381,314.888,513.262,309.554,511.619,304.516z"/>
<path style="fill:#666666;" d="M428.082,275.3v-33.782c0-21.83,17.759-39.588,39.588-39.588h-22.697
	c-21.83,0-39.588,17.759-39.588,39.588V275.3c0,21.83,17.759,39.588,39.588,39.588h22.697
	C445.841,314.888,428.082,297.129,428.082,275.3z"/>
<path style="fill:#F3B41B;" d="M366.852,342.336h-5.278c-4.373,0-7.918-3.545-7.918-7.918c0-4.373,3.545-7.918,7.918-7.918h5.278
	c4.373,0,7.918,3.545,7.918,7.918C374.77,338.791,371.225,342.336,366.852,342.336z"/>
<path style="fill:#F7D04A;" d="M98.707,170.258H77.593c-4.373,0-7.918,3.545-7.918,7.918v67.564c0,4.373,3.545,7.918,7.918,7.918
	h21.114c4.373,0,7.918-3.545,7.918-7.918v-67.564C106.625,173.804,103.08,170.258,98.707,170.258z"/>
<g>
	<path style="fill:#F3B41B;" d="M69.676,228.608v17.133c0,4.373,3.545,7.918,7.918,7.918h21.114c4.373,0,7.918-3.545,7.918-7.918
		v-17.133H69.676z"/>
	<path style="fill:#F3B41B;" d="M106.625,178.176c0-4.373-3.545-7.918-7.918-7.918H77.593c-4.373,0-7.918,3.545-7.918,7.918v24.391
		h36.949V178.176z"/>
</g>
<path style="fill:#F7D04A;" d="M111.375,149.145h-46.45c-4.373,0-7.918,3.545-7.918,7.918v27.448c0,4.373,3.545,7.918,7.918,7.918
	h46.45c4.373,0,7.918-3.545,7.918-7.918v-27.448C119.293,152.69,115.748,149.145,111.375,149.145z"/>
<path style="fill:#F3B41B;" d="M64.925,149.145c-4.373,0-7.918,3.545-7.918,7.918v27.448c0,4.373,3.545,7.918,7.918,7.918h10.908
	v-43.283H64.925z"/>
<path style="fill:#F7D04A;" d="M279.23,78.875h-96.068c-21.83,0-39.588,17.759-39.588,39.588v119.359H39.588
	C17.759,237.823,0,255.581,0,277.411v99.235c0,4.373,3.545,7.918,7.918,7.918h287.148c4.373,0,7.918-3.545,7.918-7.918V102.628
	C302.983,89.531,292.328,78.875,279.23,78.875z"/>
<path style="fill:#F3B41B;" d="M0,361.272v15.374c0,4.373,3.545,7.918,7.918,7.918h287.148c4.373,0,7.918-3.545,7.918-7.918v-15.374
	H0z"/>
<path style="fill:#808080;" d="M269.729,102.694h-77.065c-13.098,0-23.753,10.655-23.753,23.753V245.74
	c0,4.373,3.545,7.918,7.918,7.918h92.901c4.373,0,7.918-3.545,7.918-7.918V110.612C277.646,106.239,274.101,102.694,269.729,102.694
	z"/>
<path style="fill:#666666;" d="M88.15,320.166c-31.143,0-56.479,25.337-56.479,56.479s25.337,56.479,56.479,56.479
	s56.479-25.337,56.479-56.479S119.293,320.166,88.15,320.166z"/>
<path style="fill:#E5E5E5;" d="M88.15,345.503c-17.172,0-31.143,13.971-31.143,31.143c0,17.172,13.971,31.143,31.143,31.143
	s31.143-13.971,31.143-31.143C119.293,359.474,105.322,345.503,88.15,345.503z"/>
<path style="fill:#666666;" d="M214.833,320.166c-31.143,0-56.479,25.337-56.479,56.479s25.337,56.479,56.479,56.479
	s56.479-25.337,56.479-56.479S245.976,320.166,214.833,320.166z"/>
<path style="fill:#E5E5E5;" d="M214.833,345.503c-17.172,0-31.143,13.971-31.143,31.143c0,17.172,13.971,31.143,31.143,31.143
	s31.143-13.971,31.143-31.143C245.976,359.474,232.005,345.503,214.833,345.503z"/>
<g>
	<path style="fill:#F3B41B;" d="M200.053,276.883h-23.225c-4.373,0-7.918-3.545-7.918-7.918c0-4.373,3.545-7.918,7.918-7.918h23.225
		c4.373,0,7.918,3.545,7.918,7.918C207.971,273.338,204.426,276.883,200.053,276.883z"/>
	<path style="fill:#F3B41B;" d="M267.617,304.331H109.264c-4.373,0-7.918-3.545-7.918-7.918c0-4.373,3.545-7.918,7.918-7.918
		h158.353c4.373,0,7.918,3.545,7.918,7.918C275.535,300.786,271.99,304.331,267.617,304.331z"/>
	<path style="fill:#F3B41B;" d="M75.482,304.331H31.143c-4.373,0-7.918-3.545-7.918-7.918c0-4.373,3.545-7.918,7.918-7.918h44.339
		c4.373,0,7.918,3.545,7.918,7.918C83.399,300.786,79.854,304.331,75.482,304.331z"/>
</g>
</svg>